<?xml version="1.0" encoding="UTF-8"?>
<svg version="1.1" viewBox="0 0 32 32" xmlns="http://www.w3.org/2000/svg" xmlns:cc="http://creativecommons.org/ns#" xmlns:dc="http://purl.org/dc/elements/1.1/" xmlns:rdf="http://www.w3.org/1999/02/22-rdf-syntax-ns#">
<metadata>
<rdf:RDF>
<cc:Work rdf:about="">
<dc:format>image/svg+xml</dc:format>
<dc:type rdf:resource="http://purl.org/dc/dcmitype/StillImage"/>
<dc:title/>
</cc:Work>
</rdf:RDF>
</metadata>
<text x="7" y="9" fill="#000000" font-family="sans-serif" font-size="5.3333px" font-style="italic" style="line-height:1.25" xml:space="preserve"><tspan x="7" y="9"/></text>
<text x="6" y="12" fill="#000000" font-family="'MV Boli'" font-size="40px" style="line-height:1.25" xml:space="preserve"><tspan x="6" y="12"/></text>
<text x="13" y="12" fill="#000000" font-family="Forte" font-size="40px" style="line-height:1.25" xml:space="preserve"><tspan x="13" y="12"/></text>
<g transform="translate(-1.3648 .67925)" fill="#a00">
<g transform="matrix(.99995 0 0 1.4663 .0002822 -3.5956)" fill="#a00" style="inline-size:16;white-space:pre" aria-label="Sold">
<path d="m7.8301 7.9141c-0.87823-0.018271-1.7409 0.85522-1.4539 1.7421 0.27904 0.5376 0.973 0.41754 1.4637 0.33412 0.46832-0.041495 0.8411 0.31191 0.86861 0.76541 0.15374 0.37757 0.093532 1.0364-0.43111 1.0471-0.35939 0.08005-0.80292 0.18222-1.1172-0.05859 0.38078-0.21224 1.0721-0.3659 0.98438-0.93164-0.50618-0.53726-1.428-0.42254-1.9883-0.05078-0.37959 0.48927 0.078101 1.0957 0.58984 1.2285 0.75998 0.30236 1.6229 0.24029 2.4004 0.03906 0.63407-0.1889 1.1401-0.77475 1.1122-1.4516 0.046071-0.47151-0.34989-0.88682-0.82897-0.84918-0.56868-0.015958-1.3914 0.17942-1.668-0.48828-0.15034-0.35442-0.33118-0.98499 0.19531-1.1016 0.28005-0.049499 0.72387-0.08025 0.90234 0.16797-0.25053 0.20302-0.8209 0.18145-0.76562 0.63672 0.4157 0.44722 1.1811 0.49783 1.6984 0.18462 0.349-0.26603 0.076579-0.79983-0.24609-0.96319-0.51762-0.29298-1.1414-0.25855-1.716-0.25072z"/>
<path d="m12.537 9.1582c-0.75287-0.022545-1.5465 0.33412-1.9395 1.0039-0.24099 0.42526-0.21664 1.0071 0.11222 1.3804 0.32783 0.45994 0.88591 0.71825 1.4331 0.75361 0.57846 0.0494 1.1696-0.22066 1.4664-0.72778 0.31204-0.56208 0.47834-1.2872 0.26172-1.9121-0.25882-0.4917-0.83895-0.54505-1.334-0.49805zm0.32422 1.002c0.34038-0.06109 0.9327 0.34521 0.55469 0.68359-0.63135 0.50652-1.5448 0.66941-2.293 0.33594-0.42663-0.35397 0.23206-0.80115 0.57094-0.88241 0.36139-0.1718 0.77736-0.16921 1.1673-0.13712z"/>
<path d="m14.684 7.8301c-0.23372 0.011068-0.46745 0.022135-0.70117 0.033203-0.06098 0.26901 0.08272 0.49836 0.36741 0.47062 0.39845 0.32049 0.26088 0.93039 0.3533 1.3848 0.02679 0.84758-0.15349 1.6775-0.33789 2.5 0.28863-0.0092 0.54218-0.23859 0.85352-0.20312 0.28085-0.01274 0.56198 0.03393 0.82227 0.14062-6.51e-4 -0.22461-0.0013-0.44922-2e-3 -0.67383-0.20714-0.09838-0.43677 0.0063-0.63672 0.0332 0.45697-0.91255 0.56578-1.956 0.50586-2.9629-0.02408-0.28218-0.09411-0.55679-0.14844-0.83398-0.35872 0.037109-0.71745 0.074219-1.0762 0.11133z"/>
<path d="m20.164 7.7637c-0.63476 0.099609-1.2695 0.19922-1.9043 0.29883 0.42392 0.49892 0.77438 1.1212 0.72852 1.7969-0.56721-0.65147-1.7993-0.82373-2.2793 0.017578-0.38235 0.57896-0.59673 1.6156 0.08398 2.0391 0.69637 0.28844 1.5133 0.02963 2.1289-0.30469-0.02887 0.20314-0.09113 0.4082-0.14258 0.60938 0.49323-0.26059 1.0847-0.50508 1.6406-0.29102l-0.07422-0.69336c-0.19852-0.06708-0.40799 0.0135-0.58203 0.10742 0.35003-0.83643 0.38144-1.7751 0.2168-2.6582-0.13638-0.2293 0.1149-0.47252 0.33789-0.49219 0.03242-0.11678 0.11257-0.54275-0.1543-0.42969zm-1.5703 2.5547c0.21699-0.03369 0.74862 0.18343 0.41513 0.42131-0.52271 0.44843-1.4271 0.5498-1.9835 0.14315 0.02407-0.44663 0.6443-0.45341 0.97158-0.55158 0.19683-0.03406 0.39857-0.03241 0.59678-0.01287z"/>
</g>
</g>
<text transform="scale(.91774 1.0896)" x="13.262316" y="19.823698" fill="#aa0000" font-family="Ravie" font-size="6.1832px" stroke-width="1.1594" style="line-height:1.25" xml:space="preserve"><tspan x="13.262316" y="19.823698" fill="#aa0000" stroke-width="1.1594">Out</tspan></text>
<path d="m10 4c0.05734 0.02867 0.13076 0.059266 0.22659 0.091439l1e-6 2e-7c0.08351 0.02804 0.18294 0.056915 0.30249 0.086758l1e-6 2e-7c0.21068 0.052591 0.47339 0.10565 0.81177 0.16309l1e-6 2e-7c0.6237 0.10587 1.287 0.19287 2.2885 0.33491l1e-6 2e-7c1.6256 0.23052 3.8438 0.56551 5.9299 1.19 1.0271 0.30747 2.0044 0.67885 2.8859 1.1337 0.92645 0.478 1.7045 1.0262 2.3246 1.6497v9e-7c0.69473 0.69853 1.1551 1.4552 1.433 2.2524 0.36588 1.0498 0.39364 2.1096 0.29978 3.0482 0 5e-7 0.49752 0.049752 0.49752 0.049752l0.49752 0.04975c0.10387-1.0387 0.05005-2.2607-0.42288-3.4713-0.36048-0.92273-0.93572-1.7662-1.7506-2.5093l-1e-6 -9e-7c-0.72275-0.65906-1.5976-1.2062-2.5934-1.6589-0.94768-0.43085-1.9788-0.76437-3.0398-1.0265-2.1548-0.53225-4.4051-0.75921-6.0389-0.90375l-1e-6 -1e-7c-1.0136-0.089675-1.6698-0.1381-2.3013-0.20806l-1e-6 -1e-7c-0.33961-0.037618-0.60466-0.075028-0.81664-0.11572l-2e-6 -2e-7c-0.12046-0.023122-0.22099-0.046792-0.30536-0.071139l-1e-6 -2e-7c-0.096835-0.027946-0.17119-0.056456-0.22855-0.085136z" fill="#a00"/>
<path d="m7 21-0.35355 0.35355c0.0056 0.0056 0.38024 0.36041 1.5967 1.2985 0.90637 0.69896 2.2866 1.6962 3.8809 2.5639l1e-6 1e-6c0.78124 0.42519 1.5975 0.81054 2.4285 1.1197h2e-6c0.87354 0.32499 1.729 0.55302 2.5563 0.66799h1e-6c0.93037 0.1293 1.7708 0.10812 2.5298-0.03552 0.99723-0.18873 1.7684-0.57274 2.3614-0.9681-0.59436 0.39624-1.378 0.75582-2.3729 0.89908-0.75586 0.10884-1.5837 0.08589-2.4858-0.09021h-1e-6c-0.80218-0.15658-1.6257-0.42698-2.4593-0.79295l-2e-6 -1e-6c-0.79324-0.34825-1.5685-0.77118-2.3059-1.2319h-1e-6c-1.5109-0.94386-2.7859-1.9976-3.6191-2.7486-1.1119-1.0022-1.4089-1.3946-1.4033-1.389l-0.35355 0.35355z" fill="#a00"/>
</svg>
